<svg width="46" height="48" viewBox="0 0 46 48" fill="none" xmlns="http://www.w3.org/2000/svg">
<rect width="11.3" height="24.5722" rx="5.65" transform="matrix(1 0 0.000202027 1 3.0791 20.044)" fill="#FBBB51"/>
<rect x="15.3843" y="20.044" width="11.3" height="27" rx="5.65" fill="#FBBB51"/>
<rect width="11.3" height="24.5722" rx="5.65" transform="matrix(1 0 -0.000202027 1 27.689 20.044)" fill="#FBBB51"/>
<path d="M21.0791 42.4726C31.0202 42.4726 39.0791 34.4137 39.0791 24.4726C39.0791 14.5315 31.0202 6.4726 21.0791 6.4726C11.138 6.4726 3.0791 14.5315 3.0791 24.4726C3.0791 34.4137 11.138 42.4726 21.0791 42.4726Z" fill="#F6D31D"/>
<path d="M21.0791 42.4726C31.0202 42.4726 39.0791 34.4137 39.0791 24.4726C39.0791 14.5315 31.0202 6.4726 21.0791 6.4726C11.138 6.4726 3.0791 14.5315 3.0791 24.4726C3.0791 34.4137 11.138 42.4726 21.0791 42.4726Z" fill="url(#paint0_radial_116_3969)" fill-opacity="0.5"/>
<circle cx="20.7716" cy="18.6641" r="8.30769" fill="white"/>
<circle cx="20.7715" cy="18.6641" r="4.15385" fill="#1B1B1B"/>
<path d="M21.1902 26.5001C15.5902 26.5001 12.1161 24.8564 11.0791 23.6064C12.3754 22.8564 16.2124 21.3564 21.1902 21.3564C26.168 21.3564 30.5235 22.8564 32.0791 23.6064C30.7828 24.8564 26.7902 26.5001 21.1902 26.5001Z" fill="url(#paint1_radial_116_3969)"/>
<path d="M21.5 34C23.5633 34.0006 25.5576 33.2195 27.1168 31.8001C28.676 30.3808 29.6955 28.4184 29.9881 26.2731C30.011 26.1145 30.0008 25.9525 29.9582 25.7984C29.9156 25.6443 29.8416 25.5017 29.7414 25.3806C29.6411 25.2595 29.517 25.1628 29.3776 25.0971C29.2382 25.0313 29.0869 24.9983 28.9341 25.0001H14.0659C13.9131 24.9983 13.7618 25.0313 13.6224 25.0971C13.483 25.1628 13.3589 25.2595 13.2586 25.3806C13.1584 25.5017 13.0844 25.6443 13.0418 25.7984C12.9992 25.9525 12.989 26.1145 13.0119 26.2731C13.3045 28.4184 14.324 30.3808 15.8832 31.8001C17.4424 33.2195 19.4367 34.0006 21.5 34Z" fill="#444444"/>
<path d="M21.5 27C18.0333 27 15.9028 25.3333 15 25H28C27.4583 25.3333 24.9667 27 21.5 27Z" fill="white"/>
<path d="M21.5 34C18.5667 34 17 33 16 32C16 32 18 30.5 21.5 30.5C25 30.5 27 32 27 32C26.5417 32.3333 24.4333 34 21.5 34Z" fill="#ED6B86"/>
<path fill-rule="evenodd" clip-rule="evenodd" d="M43.5206 13.4583C43.5803 11.6683 42.5727 9.93578 40.838 9.15622C38.5662 8.13531 35.9003 9.13208 34.8516 11.3825C35.8374 9.10423 34.8127 6.44942 32.5411 5.42862C30.2499 4.39897 27.5577 5.42169 26.5281 7.71294C26.491 7.79548 26.4566 7.87854 26.4248 7.96202C26.3803 8.04729 26.337 8.13669 26.2949 8.23032C24.4128 12.4186 29.63 18.76 31.1069 20.5552C31.166 20.6271 31.2192 20.6918 31.2657 20.7487C31.357 20.7378 31.4682 20.7257 31.597 20.7117C33.7889 20.4726 41.0977 19.6753 43.1227 15.1691C43.4238 14.4992 43.5448 13.9336 43.5206 13.4583ZM34.7186 11.6975C34.7154 11.6983 34.7121 11.699 34.7088 11.6997C34.7072 11.697 34.7056 11.6944 34.7039 11.6917C34.7369 11.6288 34.7686 11.5648 34.7989 11.4997C34.7705 11.5654 34.7437 11.6313 34.7186 11.6975Z" fill="#FF0A0A"/>
<path fill-rule="evenodd" clip-rule="evenodd" d="M10.4251 23.6502C9.51043 22.9779 8.24353 22.8845 7.21484 23.5128C5.86903 24.3347 5.43587 26.0834 6.23489 27.4367C5.39569 26.1083 3.64249 25.6954 2.29688 26.5172C0.938556 27.3468 0.509931 29.1204 1.33952 30.4788C1.36921 30.5274 1.40012 30.5748 1.43217 30.621C1.46098 30.6751 1.49239 30.73 1.52647 30.7858C3.04291 33.2688 8.22571 32.8101 9.69287 32.6803C9.75166 32.6751 9.80449 32.6704 9.85087 32.6665C9.8779 32.6148 9.91133 32.5524 9.95008 32.48C10.6095 31.2483 12.8081 27.1414 11.1765 24.47C10.9342 24.0732 10.682 23.8076 10.4251 23.6502ZM6.35388 27.622C6.35308 27.6239 6.35228 27.6259 6.35149 27.6279C6.34956 27.6278 6.34763 27.6277 6.3457 27.6276C6.32511 27.5889 6.30356 27.5504 6.28102 27.5122C6.3046 27.5495 6.32889 27.5861 6.35388 27.622Z" fill="#FF0A0A"/>
<defs>
<radialGradient id="paint0_radial_116_3969" cx="0" cy="0" r="1" gradientUnits="userSpaceOnUse" gradientTransform="translate(21.5525 17.451) rotate(91.084) scale(25.026)">
<stop stop-color="#FFFBEE" stop-opacity="0.97"/>
<stop offset="1" stop-color="#FFA082"/>
</radialGradient>
<radialGradient id="paint1_radial_116_3969" cx="0" cy="0" r="1" gradientUnits="userSpaceOnUse" gradientTransform="translate(22.2791 21.9564) rotate(97.3861) scale(5.44518 18.9746)">
<stop stop-color="#FAD46E"/>
<stop offset="1" stop-color="#FAD670"/>
</radialGradient>
</defs>
</svg>
