<svg width="38" height="42" viewBox="0 0 38 42" fill="none" xmlns="http://www.w3.org/2000/svg">
<rect width="11.523" height="24.3276" rx="5.76149" transform="matrix(1 0 0.000202027 1 0.997559 14.1379)" fill="#FBBA50"/>
<rect x="13.2383" y="14.1379" width="11.523" height="27.1897" rx="5.76149" fill="#FBBA50"/>
<rect width="11.523" height="24.3276" rx="5.76149" transform="matrix(1 0 -0.000206867 1 25.4795 14.1379)" fill="#FBBA50"/>
<path d="M18.9846 36.0517C28.9173 36.0517 36.9693 27.9813 36.9693 18.0259C36.9693 8.07046 28.9173 0 18.9846 0C9.05199 0 1 8.07046 1 18.0259C1 27.9813 9.05199 36.0517 18.9846 36.0517Z" fill="#F6D31D"/>
<path d="M18.9846 36.0517C28.9173 36.0517 36.9693 27.9813 36.9693 18.0259C36.9693 8.07046 28.9173 0 18.9846 0C9.05199 0 1 8.07046 1 18.0259C1 27.9813 9.05199 36.0517 18.9846 36.0517Z" fill="url(#paint0_radial_116_3638)" fill-opacity="0.5"/>
<path d="M13.9683 25.4321H23.7945" stroke="#444444" stroke-width="1.21463" stroke-linecap="round" stroke-linejoin="round"/>
<ellipse cx="18.6322" cy="14.8449" rx="6.34752" ry="6.36207" fill="white"/>
<ellipse cx="18.6323" cy="14.8449" rx="3.17376" ry="3.18103" fill="#1B1B1B"/>
<defs>
<radialGradient id="paint0_radial_116_3638" cx="0" cy="0" r="1" gradientUnits="userSpaceOnUse" gradientTransform="translate(19.4577 10.9942) rotate(91.0815) scale(25.062 25.0047)">
<stop stop-color="#FFFBEE" stop-opacity="0.97"/>
<stop offset="1" stop-color="#FFA082"/>
</radialGradient>
</defs>
</svg>
