<svg width="37" height="41" viewBox="0 0 37 41" fill="none" xmlns="http://www.w3.org/2000/svg">
<rect width="11.3" height="24.5722" rx="5.65" transform="matrix(1 0 0.000202027 1 0.5 14)" fill="#FBBB51"/>
<rect x="12.8052" y="14" width="11.3" height="27" rx="5.65" fill="#FBBB51"/>
<rect width="11.3" height="24.5722" rx="5.65" transform="matrix(1 0 -0.000202027 1 25.1099 14)" fill="#FBBB51"/>
<path d="M18.5 36C28.4411 36 36.5 27.9411 36.5 18C36.5 8.05888 28.4411 0 18.5 0C8.55887 0 0.5 8.05888 0.5 18C0.5 27.9411 8.55887 36 18.5 36Z" fill="#F6D31D"/>
<path d="M18.5 36C28.4411 36 36.5 27.9411 36.5 18C36.5 8.05888 28.4411 0 18.5 0C8.55887 0 0.5 8.05888 0.5 18C0.5 27.9411 8.55887 36 18.5 36Z" fill="url(#paint0_radial_116_3583)" fill-opacity="0.5"/>
<circle cx="18.5" cy="15" r="6" fill="white"/>
<circle cx="18.5" cy="15" r="3" fill="#1B1B1B"/>
<path d="M24.3358 28.4577C24.3358 28.4577 23.2064 25.6938 18.9788 25.6938C14.7511 25.6938 13.7139 28.4577 13.7139 28.4577" stroke="#444444" stroke-width="1.4032" stroke-linecap="round" stroke-linejoin="round"/>
<path d="M27.2705 19.0621L28.7616 23.1908C28.9 23.607 28.8704 24.0609 28.679 24.4556C28.4876 24.8503 28.1497 25.1546 27.7371 25.3037C27.3246 25.4528 26.8701 25.4348 26.4706 25.2536C26.0711 25.0725 25.7582 24.7424 25.5986 24.3338C25.4671 23.9641 25.4671 23.5605 25.5986 23.1908L27.0897 19.0621C27.0995 19.0391 27.1174 19.0205 27.1401 19.0098C27.1627 18.9991 27.1885 18.9971 27.2125 19.0041C27.2256 19.0094 27.2374 19.0173 27.2474 19.0273C27.2573 19.0372 27.2652 19.0491 27.2705 19.0621Z" fill="#91B5E6"/>
<defs>
<radialGradient id="paint0_radial_116_3583" cx="0" cy="0" r="1" gradientUnits="userSpaceOnUse" gradientTransform="translate(18.9734 10.9784) rotate(91.084) scale(25.026)">
<stop stop-color="#FFFBEE" stop-opacity="0.97"/>
<stop offset="1" stop-color="#FFA082"/>
</radialGradient>
</defs>
</svg>
