<svg width="36" height="41" viewBox="0 0 36 41" fill="none" xmlns="http://www.w3.org/2000/svg">
<path fill-rule="evenodd" clip-rule="evenodd" d="M18 0.304932C27.9411 0.304932 36 8.3638 36 18.3049C36 18.7268 35.9855 19.1453 35.9569 19.5599C35.9574 19.5899 35.9576 19.6199 35.9576 19.65L35.9549 32.9222C35.9543 36.0427 33.4242 38.5722 30.3038 38.5722C27.8755 38.5722 25.8053 37.0404 25.0067 34.8903C24.5644 35.0774 24.1131 35.2473 23.6536 35.3992C23.6272 38.4969 21.1078 41 18.0038 41C14.9006 41 12.3818 38.4983 12.354 35.4017C11.8941 35.2499 11.4425 35.0801 10.9998 34.893C10.2005 37.0417 8.13103 38.5722 5.70379 38.5722C2.58338 38.5722 0.0532813 36.0426 0.0526509 32.9222L0.0499709 19.6564C0.0168539 19.2102 0 18.7596 0 18.3049C0 8.3638 8.05887 0.304932 18 0.304932Z" fill="url(#paint0_linear_116_3517)"/>
<path fill-rule="evenodd" clip-rule="evenodd" d="M18 0.304932C27.9411 0.304932 36 8.3638 36 18.3049C36 18.7268 35.9855 19.1453 35.9569 19.5599C35.9574 19.5899 35.9576 19.6199 35.9576 19.65L35.9549 32.9222C35.9543 36.0427 33.4242 38.5722 30.3038 38.5722C27.8755 38.5722 25.8053 37.0404 25.0067 34.8903C24.5644 35.0774 24.1131 35.2473 23.6536 35.3992C23.6272 38.4969 21.1078 41 18.0038 41C14.9006 41 12.3818 38.4983 12.354 35.4017C11.8941 35.2499 11.4425 35.0801 10.9998 34.893C10.2005 37.0417 8.13103 38.5722 5.70379 38.5722C2.58338 38.5722 0.0532813 36.0426 0.0526509 32.9222L0.0499709 19.6564C0.0168539 19.2102 0 18.7596 0 18.3049C0 8.3638 8.05887 0.304932 18 0.304932Z" fill="url(#paint1_radial_116_3517)" fill-opacity="0.9"/>
<circle cx="18" cy="18" r="6" fill="white"/>
<circle cx="18" cy="18" r="3" fill="#1B1B1B"/>
<path d="M17.6667 17C12.8667 17 9.88889 13.6667 9 12C10.1111 11 13.4 9 17.6667 9C21.9333 9 25.6667 11 27 12C25.8889 13.6667 22.4667 17 17.6667 17Z" fill="url(#paint2_linear_116_3517)"/>
<path d="M11 14C11 14 12.6428 17 17.7232 17C22.8035 17 24 14 24 14" stroke="#0C0C0C" stroke-width="1.4032" stroke-linecap="round" stroke-linejoin="round"/>
<path d="M25.2008 28.9728C25.2008 28.9728 23.2832 25.5607 18.0592 25.5607C12.8353 25.5607 11.0337 28.9728 11.0337 28.9728" stroke="#0C0C0C" stroke-width="1.4032" stroke-linecap="round" stroke-linejoin="round"/>
<defs>
<linearGradient id="paint0_linear_116_3517" x1="20.3278" y1="36.0026" x2="19.832" y2="2.78388" gradientUnits="userSpaceOnUse">
<stop stop-color="#FFD057"/>
<stop offset="1" stop-color="#FE3B3B"/>
</linearGradient>
<radialGradient id="paint1_radial_116_3517" cx="0" cy="0" r="1" gradientUnits="userSpaceOnUse" gradientTransform="translate(17.8488 22.1201) rotate(-11.8702) scale(18.5478)">
<stop offset="0.604167" stop-color="#FA8D5F" stop-opacity="0"/>
<stop offset="1" stop-color="#FF4D00"/>
</radialGradient>
<linearGradient id="paint2_linear_116_3517" x1="18" y1="9" x2="18" y2="17" gradientUnits="userSpaceOnUse">
<stop stop-color="#FE613D"/>
<stop offset="1" stop-color="#FF7446"/>
</linearGradient>
</defs>
</svg>
