<?xml version="1.0" encoding="UTF-8"?>
<svg width="3959px" height="777px" viewBox="0 0 3959 777" version="1.1" xmlns="http://www.w3.org/2000/svg" xmlns:xlink="http://www.w3.org/1999/xlink">
    <!-- Generator: Sketch 51.3 (57544) - http://www.bohemiancoding.com/sketch -->
    <title>Group</title>
    <desc>Created with Sketch.</desc>
    <defs></defs>
    <g id="Page-1" stroke="none" stroke-width="1" fill="none" fill-rule="evenodd">
        <g id="Group">
            <rect id="Rectangle" stroke="#979797" fill="#A8241F" x="0.5" y="0.5" width="3958" height="776"></rect>
            <g id="logo" transform="translate(147.000000, 176.000000)" fill-rule="nonzero">
                <path d="M3423,380 L3508,380 L3508,147 L3433,195 L3402,149 L3539,48 L3583,48 L3583,380 L3665,380 L3665,445 L3423,445 L3423,380 Z M2783,160 C2780,150 2776,142 2771,134 C2765,127 2757,120 2747,115 C2738,112 2727,109 2714,109 C2695,109 2679,114 2669,126 C2657,137 2652,153 2652,173 C2622,232 2819,279 2783,160 Z M2576,176 C2576,-4 2863,-3 2863,194 C2863,238 2857,274 2844,306 C2811,398 2738,447 2644,453 L2627,393 C2720,385 2847,259 2747,292 C2721,302 2683,298 2656,290 C2626,280 2600,259 2587,230 C2580,215 2576,198 2576,176 Z M3017,380 L3100,380 L3100,147 L3027,195 L2995,149 L3131,48 L3176,48 L3176,380 L3258,380 L3258,445 L3017,445 L3017,380 Z M3323,227 C3346,227 3364,244 3364,268 C3364,290 3346,307 3323,307 C3300,307 3283,290 3283,268 C3283,244 3300,227 3323,227 Z M2942,227 C2965,227 2983,244 2983,268 C2983,290 2965,307 2942,307 C2920,307 2902,290 2902,268 C2902,244 2920,227 2942,227 Z M282,390 L144,390 L124,455 L0,455 L148,61 L282,61 L430,455 L302,455 L282,390 Z M257,304 L213,163 L171,304 L257,304 Z M846,455 L724,455 L724,158 L591,158 L591,455 L468,455 L468,61 L846,61 L846,455 Z M900,61 L1270,61 L1270,158 L1145,158 L1145,455 L1024,455 L1024,158 L900,158 L900,61 Z M1325,61 L1651,61 L1651,145 L1447,145 L1447,208 L1636,208 L1636,288 L1447,288 L1447,366 L1657,366 L1657,455 L1325,455 L1325,61 Z M2081,455 L1944,455 L1896,354 C1885,329 1876,300 1844,300 L1844,455 L1722,455 L1722,61 L1844,61 L1844,212 C1952,203 1816,58 2068,58 L2068,142 C2051,142 2030,142 2016,153 C2006,161 1998,174 1992,191 C1985,209 1978,222 1971,231 C1930,283 1975,238 2028,347 L2081,455 Z M2367,390 L2229,390 L2210,455 L2085,455 L2233,61 L2367,61 L2515,455 L2388,455 L2367,390 Z M2342,304 L2298,163 L2256,304 L2342,304 Z" id="Shape" fill="#8E2422"></path>
                <path d="M3423,334 L3508,334 L3508,101 L3433,149 L3402,104 L3539,1 L3583,1 L3583,334 L3665,334 L3665,399 L3423,399 L3423,334 Z M2652,127 C2652,168 2681,189 2720,189 C2743,189 2770,182 2786,164 C2786,160 2787,156 2787,152 C2787,136 2789,132 2783,114 C2777,93 2767,80 2747,70 C2725,59 2686,60 2669,80 C2657,91 2652,107 2652,127 Z M2585,79 C2600,44 2621,23 2656,10 C2674,3 2693,0 2715,0 C2761,0 2798,13 2823,38 C2849,64 2863,101 2863,148 C2863,217 2845,289 2797,339 C2757,381 2701,404 2644,406 L2627,347 C2667,342 2701,332 2732,305 C2756,285 2772,256 2779,226 C2770,236 2759,242 2747,246 C2720,254 2683,253 2656,244 C2626,234 2601,213 2587,184 C2572,153 2572,110 2585,79 Z M3017,334 L3100,334 L3100,101 L3027,149 L2995,104 L3131,1 L3176,1 L3176,334 L3258,334 L3258,399 L3017,399 L3017,334 Z M3323,180 C3346,180 3364,199 3364,221 C3364,243 3346,262 3323,262 C3300,262 3283,243 3283,221 C3283,199 3300,180 3323,180 Z M2942,180 C2965,180 2983,199 2983,221 C2983,243 2965,262 2942,262 C2920,262 2902,243 2902,221 C2902,199 2920,180 2942,180 Z M282,344 L144,344 L124,409 L0,409 L148,15 L282,15 L430,409 L302,409 L282,344 Z M257,259 L213,116 L171,259 L257,259 Z M846,409 L724,409 L724,112 L591,112 L591,409 L468,409 L468,15 L846,15 L846,409 Z M900,15 L1270,15 L1270,112 L1145,112 L1145,409 L1024,409 L1024,112 L900,112 L900,15 Z M1325,15 L1651,15 L1651,99 L1447,99 L1447,162 L1636,162 L1636,242 L1447,242 L1447,320 L1657,320 L1657,409 L1325,409 L1325,15 Z M2081,409 L1944,409 L1896,307 C1885,283 1876,253 1844,253 L1844,409 L1722,409 L1722,15 L1844,15 L1844,166 C1855,166 1863,162 1869,155 C1876,147 1884,128 1897,94 C1913,53 1924,29 1970,18 C1991,14 2024,12 2068,12 L2068,95 L2063,95 C2024,95 2004,108 1992,145 C1981,172 1969,195 1940,206 C1958,211 1973,221 1986,236 C2000,249 2013,272 2028,302 L2081,409 Z M2367,344 L2229,344 L2210,409 L2085,409 L2233,15 L2367,15 L2515,409 L2388,409 L2367,344 Z M2342,259 L2298,116 L2256,259 L2342,259 Z" id="Shape" fill="#FFFFFF"></path>
            </g>
        </g>
    </g>
</svg>