<svg xmlns="http://www.w3.org/2000/svg" width="160" height="161" fill="none" xmlns:v="https://vecta.io/nano"><path d="M4.038 130.31s9.663-12.775 20.475-14.287 27.525 1.512 33.688 4.187 11.975 9.413 14.413 10 4.888-1.625 4.888-1.625c3.95-14.075-12.65-21.275-18.725-23.837C28.438 91.96 34.313 70.635 36.338 66.023c5.362-12.213 18.6-12.913 18.6-12.913s8.55.063 11.675 5.175c1.888 3.087 3.375 6.763 4.688 9.025 1.737 2.975 8.838 4.063 8.838.05 0-5.325-2.85-28.425-6.8-31.575S55.35 22.16 51.675 23.348c-4.75 1.525-30.75 16.188-35.812 20.375S4.038 57.248 4.038 57.248v73.062z" fill="url(#A)"/><path d="M155.963 130.311s-9.663-12.775-20.475-14.288-27.525 1.513-33.688 4.188-11.975 9.412-14.412 10-4.888-1.625-4.888-1.625c-3.95-14.063 12.65-21.275 18.725-23.838 30.35-12.787 24.463-34.112 22.438-38.725-5.363-12.213-18.6-12.913-18.6-12.913s-8.55.062-11.675 5.175c-1.888 3.087-3.375 6.762-4.687 9.025-1.737 2.975-8.838 4.063-8.838.05 0-5.325 2.85-28.425 6.8-31.575 3.95-3.138 17.987-13.625 21.662-12.438 4.75 1.525 30.75 16.188 35.813 20.375s11.837 13.512 11.837 13.512v73.075h-.012z" fill="url(#B)"/><g fill="#eda600"><path d="M80.925 68.41l.013-11.5c0-2.825-2.913-17.562-6.375-21.875-2.225-2.75-8.213-6.55-14.163-10.188l-2.587-1.613c-2.825-1.85-6.562-1.738-11.1.338-9.863 4.5-27.263 15.238-30.275 17.662-5.1 4.1-8.837 9.413-12.4 14.6v5.425c4.175-5.15 10.075-13.35 14.75-17.112 2.837-2.275 20.037-12.875 29.475-17.175 3.3-1.5 5.813-1.7 7.5-.613.6.387 1.538.975 2.675 1.663 3.912 2.4 11.2 6.862 13.2 9.35 1.15 1.425 2.162 3.862 2.938 6.288-1.663-1.2-3.975-2.788-6.25-4.363l-6.463-4.538c-6.225-4.7-13.65-2.537-16.55-1.387-3.088 1.225-12.488 7.712-14.288 8.813-3.012 1.85-4.875 4.237-4.987 4.813-.113.587 3.9-1.575 3.9-1.575.15-.087 12.988-7.087 16.763-8.575 2.875-1.138 8.375-2.525 12.913.9 1.2.913 3.825 2.712 6.588 4.625l8 5.663c1.237 1.012 2.6 1.512 3.237 6.688l1.337 11.162c0 2.15-2.412 2.325-3.2 2.05-4.763-1.7-5.013-5.587-5.562-7.325-.613-1.913-1.187-3.712-2.375-4.85-2.275-2.175-11-4.825-14.363-4.375-4.238.575-17 5.138-19.95 18.15-1.787 7.875.462 19.225 8.2 25.712 7.85 6.575 14.288 9.912 19.975 12.862l1.662.863c4.638 2.362 9.888 5.05 12.75 11.937.9 2.15 1.025 5.15-.475 6.725-.6.625-1.737.663-2.425.075-7.4-6.212-19.713-14.387-41.038-13.65-4.338.15-12.475 1.2-19.287-5.187-1.225-1.15-2.237-2.338-2.875-3.125-.237-.288-.713-.15-.725.225-.225 4.425 5.788 9.737 8.725 10.287-6.112 3.063-11.125 8.238-13.762 11.325v5.675c4-4.687 13.3-14.55 21.525-15.612 2.45.212 4.725.212 6.538.15 20.063-.663 31.575 6.962 38.5 12.775 1.025.862 2.313 1.287 3.6 1.287 1.463 0 2.913-.55 3.95-1.637 2.75-2.875 2.6-7.475 1.225-10.763-3.4-8.15-9.825-11.437-14.513-13.825l-1.638-.85c-5.788-3-11.763-6.1-19.3-12.412-6.513-5.45-8.45-15.412-6.95-22 2.9-12.812 16.65-15.225 16.788-15.237 2.4-.312 9.9 2.125 11.275 3.375 1.237 1.125 1.938 6.65 5.075 9.675 5.675 5.475 10.8 1.975 10.8.225z"/><path d="M79.075 68.41l-.013-11.5c0-2.825 2.912-17.562 6.375-21.875 2.225-2.75 8.213-6.55 14.162-10.188l2.588-1.613c2.825-1.85 6.562-1.738 11.099.338 9.863 4.5 27.263 15.238 30.275 17.662 5.1 4.1 8.838 9.413 12.4 14.6v5.425c-4.175-5.15-10.074-13.35-14.749-17.112-2.838-2.275-20.038-12.875-29.476-17.175-3.299-1.5-5.812-1.7-7.5-.613a110.86 110.86 0 0 1-2.675 1.663c-3.912 2.4-11.199 6.862-13.199 9.35-1.15 1.425-2.162 3.862-2.937 6.288 1.663-1.2 3.975-2.788 6.25-4.363l6.463-4.538c6.225-4.7 13.65-2.537 16.551-1.387 3.087 1.225 12.487 7.712 14.287 8.813 3.012 1.85 4.875 4.237 4.987 4.813.113.587-3.899-1.575-3.899-1.575-.15-.087-12.988-7.087-16.763-8.575-2.875-1.138-8.375-2.525-12.913.9-1.2.913-3.825 2.712-6.587 4.625l-8 5.663c-1.237 1.012-2.6 1.512-3.237 6.688l-1.338 11.162c0 2.15 2.413 2.325 3.2 2.05 4.763-1.7 5.013-5.587 5.563-7.325.612-1.913 1.188-3.712 2.375-4.85 2.275-2.175 10.999-4.825 14.362-4.375 4.237.575 17 5.138 19.95 18.15 1.787 7.875-.463 19.225-8.2 25.712-7.85 6.575-14.287 9.912-19.975 12.862l-1.662.863c-4.638 2.362-9.888 5.05-12.75 11.937-.9 2.15-1.025 5.15.475 6.725.6.625 1.737.663 2.425.075 7.4-6.212 19.713-14.387 41.038-13.65 4.337.15 12.475 1.2 19.287-5.187 1.225-1.15 2.238-2.338 2.876-3.125.237-.288.712-.15.725.225.225 4.425-5.788 9.737-8.725 10.287 6.112 3.063 11.124 8.238 13.762 11.325v5.675c-4-4.687-13.3-14.55-21.525-15.612-2.45.212-4.725.212-6.538.15-20.062-.663-31.574 6.962-38.499 12.775-1.025.862-2.312 1.287-3.6 1.287-1.462 0-2.912-.55-3.95-1.637-2.75-2.875-2.6-7.475-1.225-10.763 3.4-8.15 9.825-11.437 14.513-13.825l1.638-.85c5.787-3 11.763-6.1 19.299-12.412 6.513-5.45 8.451-15.412 6.951-22-2.9-12.812-16.65-15.225-16.788-15.237-2.4-.312-9.9 2.125-11.275 3.375-1.237 1.125-1.937 6.65-5.075 9.675-5.675 5.475-10.8 1.975-10.8.225z"/></g><defs><linearGradient id="A" x1="44.344" y1="87.897" x2="-.33" y2="121.053" gradientUnits="userSpaceOnUse"><stop offset=".169" stop-color="#ffca28"/><stop offset=".872" stop-color="#ffb300"/></linearGradient><linearGradient id="B" x1="115.658" y1="87.897" x2="160.331" y2="121.053" gradientUnits="userSpaceOnUse"><stop offset=".169" stop-color="#ffca28"/><stop offset=".872" stop-color="#ffb300"/></linearGradient></defs></svg>