<svg xmlns="http://www.w3.org/2000/svg" xmlns:xlink="http://www.w3.org/1999/xlink" width="370" height="415" fill="none"><g clip-path="url(#C)"><g fill="#fbbb51"><rect width="115.586" height="251.346" rx="57.793" transform="matrix(1 0 .000202 1 .5 138.82)"/><rect x="126.366" y="138.82" width="115.586" height="276.18" rx="57.793"/><rect width="115.586" height="251.346" rx="57.793" transform="matrix(1 0 -.000202 1 252.232 138.82)"/></g><use xlink:href="#D" fill="#f6d31d"/><use xlink:href="#D" fill="url(#A)" fill-opacity=".5"/><circle cx="184.62" cy="128.591" r="61.373" fill="#fff"/><circle cx="184.687" cy="97.687" r="30.687" fill="#1b1b1b"/><path d="M186.893 200.194c-40.916 0-66.298-21.311-73.875-31.966 9.471-6.393 37.505-19.179 73.875-19.179s68.192 12.786 79.558 19.179c-9.471 10.655-38.643 31.966-79.558 31.966z" fill="url(#B)"/><path d="M133.985 218.917s11.518 28.271 54.796 28.271 53.819-28.271 53.819-28.271" stroke="#444" stroke-width="14.353" stroke-linecap="round" stroke-linejoin="round"/></g><defs><radialGradient id="A" cx="0" cy="0" r="1" gradientUnits="userSpaceOnUse" gradientTransform="matrix(-4.842842533077684,255.94218687078495,-255.94218687078495,-4.842842533077684,189.462,112.297)"><stop stop-color="#fffbee" stop-opacity=".97"/><stop offset="1" stop-color="#ffa082"/></radialGradient><radialGradient id="B" cx="0" cy="0" r="1" gradientUnits="userSpaceOnUse" gradientTransform="translate(194.849 154.164) rotate(96.3402) scale(46.3132 138.94)"><stop stop-color="#fad46e"/><stop offset="1" stop-color="#fad670"/></radialGradient><clipPath id="C"><path fill="#fff" transform="translate(.5)" d="M0 0h369v415H0z"/></clipPath><path id="D" d="M184.62 368.24c101.686 0 184.12-82.434 184.12-184.12S286.306 0 184.62 0 .5 82.433.5 184.12s82.433 184.12 184.12 184.12z"/></defs></svg>