<svg xmlns="http://www.w3.org/2000/svg" width="243" height="69" fill="none"><path d="M107.557 20.685c.047 1.365-.141 2.448-.519 3.202s-.897 1.318-1.51 1.695c-.661.377-1.369.612-2.124.706l-2.312.235.188 12.901-.141 3.578-.142 3.484c0 1.695-.377 2.919-1.085 3.625-.755.706-1.888 1.036-3.398 1.036-1.321 0-2.265-.424-2.879-1.271s-.944-1.883-.944-3.108l.047-4.473.047-3.861.047-3.861.047-4.426.142-3.484-1.935-.235c-.708-.141-1.369-.377-2.029-.659a5.13 5.13 0 0 1-1.557-1.271c-.425-.518-.614-1.271-.614-2.166 0-.282.047-.753.142-1.318s.377-1.177.802-1.742 1.085-1.083 1.982-1.507c.849-.424 2.076-.659 3.681-.612.614.047 1.369.047 2.171.047l2.596-.047 2.737.047c.944.047 1.794.141 2.596.282.849.188 1.557.424 2.218.753a3.99 3.99 0 0 1 1.557 1.365v.047c.095.424.189.753.189 1.036zm12.129-2.636c.802 0 1.793.094 3.02.235 1.227.188 2.36.471 3.492.942 1.086.471 2.077 1.083 2.832 1.836.802.8 1.18 1.789 1.18 3.06 0 1.318-.284 2.26-.803 2.825-.519.518-1.227.8-2.076.848s-1.746-.094-2.737-.33l-2.832-.706c-.897-.235-1.652-.33-2.312-.33s-1.086.282-1.227.8c-.283.895-.236 1.601.141 2.072.331.471.897.848 1.605 1.13s1.557.518 2.548.753 1.935.565 2.879 1.036 1.793 1.083 2.596 1.883 1.368 1.883 1.746 3.296c.519 2.072.66 3.955.283 5.556-.33 1.648-.944 3.013-1.841 4.143s-1.982 2.025-3.256 2.59-2.548.895-3.823.895c-.707 0-1.51-.047-2.454-.141s-1.887-.282-2.878-.518-1.982-.565-2.879-.942c-.944-.377-1.746-.847-2.454-1.365-.708-.565-1.18-1.177-1.51-1.93-.331-.706-.378-1.554-.142-2.495.283-1.036.614-1.789.991-2.307.425-.518.85-.8 1.369-.942s1.038-.141 1.652 0l1.887.518 1.982.612c.661.235 1.322.33 2.03.33a2.05 2.05 0 0 0 .896-.188c.283-.141.567-.283.755-.518s.331-.471.331-.8-.095-.659-.331-1.036c-.188-.236-.66-.471-1.415-.659l-2.69-.895c-1.039-.377-2.077-.895-3.115-1.46-1.038-.612-1.935-1.46-2.643-2.495s-1.132-2.354-1.321-3.955c-.189-1.554.141-3.531.896-5.838.425-1.413 1.086-2.495 1.982-3.202.897-.753 1.841-1.271 2.785-1.601.991-.33 1.888-.518 2.784-.565.897-.141 1.558-.141 2.077-.141zm27.654 31.545c-.472.471-1.085.8-1.887 1.036s-1.605.282-2.407.188-1.51-.33-2.171-.753-1.085-.989-1.274-1.695c-.283-1.224-.472-2.401-.567-3.625l-.188-3.578-.048-3.531-.094-3.531-2.076-2.919a28.04 28.04 0 0 1-2.171-3.108c-.661-1.036-1.274-2.119-1.746-3.249-.472-1.083-.708-2.213-.708-3.296-.189-1.13 0-2.024.472-2.684s1.085-1.083 1.793-1.271c.708-.235 1.463-.283 2.218-.141s1.369.377 1.793.8c.661.518 1.227 1.036 1.652 1.554l1.18 1.554 1.038 1.648c.331.565.755 1.177 1.227 1.836l.755-1.695.708-1.365c.236-.424.566-.895.897-1.365a15.74 15.74 0 0 1 1.274-1.554c.519-.753 1.18-1.271 2.029-1.46.85-.235 1.699-.188 2.501.094s1.511.753 2.03 1.413c.566.706.802 1.507.66 2.542-.047.895-.33 1.93-.849 3.108-.472 1.177-1.038 2.354-1.699 3.531-.613 1.177-1.274 2.26-1.935 3.296l-1.652 2.495.048 4.285.188 4.426c.048 1.413 0 2.731-.141 4.002-.095 1.271-.378 2.26-.85 3.013zm10.005.424c-.377-.188-.66-.989-.896-2.307s-.378-2.966-.472-4.944l-.142-6.309.047-6.403.142-5.367.141-3.06c.048-.894.284-1.601.614-2.166.33-.518.802-.942 1.274-1.177.519-.235 1.038-.424 1.605-.471l1.557-.094c1.133 0 1.888.282 2.36.848s.802 1.271.944 2.166.188 1.93.188 3.06c-.047 1.13 0 2.213.095 3.343.519-.659 1.085-1.507 1.651-2.543l1.841-3.06c.661-.989 1.369-1.836 2.124-2.543s1.651-1.083 2.548-1.083c.378 0 .755.094 1.227.283a5 5 0 0 1 1.227.8c.378.329.708.706.991 1.083.283.424.425.8.472 1.224.047 1.318-.189 2.59-.708 3.908-.566 1.318-1.227 2.543-1.982 3.767l-2.265 3.202-1.605 2.213 1.746 2.448 2.077 3.108c.661 1.083 1.274 2.213 1.746 3.343.519 1.13.802 2.213.849 3.155.048.612-.094 1.177-.424 1.695-.283.518-.708.989-1.18 1.365s-.944.706-1.463.895c-.519.235-.991.33-1.369.33-.991 0-1.84-.33-2.501-.942s-1.227-1.365-1.746-2.26-.991-1.836-1.416-2.825c-.472-.989-.991-1.883-1.604-2.684l-.095.706c0 .047.047.282.095.706.094 1.695-.095 3.108-.519 4.19-.472 1.083-1.086 1.836-1.841 2.354s-1.652.753-2.596.753c-.943.047-1.84-.236-2.737-.706zm39.217-2.872c0 1.177-.377 2.025-1.179 2.59s-1.747.895-2.832 1.083c-1.133.188-2.265.235-3.445.188l-2.973-.094c-1.322 0-2.454-.094-3.398-.33s-1.699-.612-2.265-1.177-1.039-1.318-1.275-2.213c-.283-.942-.424-2.072-.424-3.484l-.095-8.522-.094-8.475-.047-2.919c-.047-1.083.047-2.119.236-3.06s.613-1.742 1.227-2.401 1.604-.989 2.878-.989c2.974 0 4.437 1.46 4.437 4.332l-.048 4.473-.094 4.143-.094 4.19-.048 4.473c0 .565.048 1.036.095 1.46s.189.706.33.989c.189.236.472.424.802.565s.803.188 1.369.188l1.133-.047c.236 0 .472-.047.66-.047s.425-.047.708-.047h1.18c.614 0 1.085.141 1.51.424s.708.706.944 1.224.378 1.083.519 1.695c.236.518.283 1.13.283 1.789zm17.839 2.213c-2.784 1.083-5.144 1.46-7.126 1.224-1.982-.282-3.587-.942-4.908-2.072-1.274-1.13-2.265-2.542-2.926-4.332-.661-1.742-1.085-3.578-1.274-5.509s-.236-3.861-.094-5.791l.755-6.215v-.047-.047l.613-1.93c.236-.659.472-1.271.85-1.883a8.61 8.61 0 0 1 1.227-1.695c.472-.518 1.085-.989 1.793-1.413 1.321-.753 2.784-1.271 4.389-1.507 1.557-.235 3.162-.188 4.719.235a12.04 12.04 0 0 1 2.784 1.648c.85.706 1.652 1.554 2.313 2.543v.047a21.92 21.92 0 0 1 1.604 4.332c.424 1.648.755 3.343.897 5.179.142 1.789.189 3.625.047 5.462-.094 1.836-.377 3.531-.849 5.085-.425 1.554-1.086 2.966-1.841 4.143-.802 1.13-1.793 1.977-2.973 2.543zm-3.775-8.475c.189-.424.33-1.036.472-1.93l.377-2.919c.095-1.036.095-2.119.095-3.249s-.142-2.119-.331-3.013-.519-1.648-.896-2.166c-.425-.565-.944-.8-1.605-.753s-1.133.424-1.557 1.083c-.378.659-.661 1.46-.897 2.401-.189.942-.33 1.883-.33 2.872-.047.989 0 1.836.047 2.495l.283 2.637c.094.989.33 1.883.755 2.731.566.659 1.133.942 1.746.942.661.047 1.274-.33 1.841-1.13zm15.715 9.464a2.86 2.86 0 0 1-1.652-.518c-.472-.33-.849-.8-1.18-1.318s-.613-1.083-.755-1.695c-.189-.565-.33-1.13-.377-1.648l-.236-15.255-.047-4.991c-.048-1.46.094-2.731.424-3.861.331-1.083.897-1.93 1.746-2.59s2.171-1.036 3.965-1.177l2.076-.094h1.841c.613 0 1.227.094 1.84.188l2.124.33c.991.188 1.935.612 2.784 1.177s1.558 1.318 2.171 2.166 1.085 1.836 1.416 2.919a11.94 11.94 0 0 1 .519 3.484c0 3.814-1.085 6.592-3.209 8.381-2.124 1.742-5.097 2.59-8.825 2.495l-.047 5.838c0 .753-.048 1.46-.189 2.072a10.43 10.43 0 0 1-.708 2.025v.047a5.18 5.18 0 0 1-1.605 1.413c-.708.424-1.368.612-2.076.612zm4.719-19.634c1.369 0 2.36-.33 2.926-.989s.85-1.365.755-2.119c-.047-.753-.425-1.46-1.085-2.072s-1.558-.848-2.643-.753v5.932h.047z" fill="#fff"/><path d="M67.567 33.994c0 18.525-15.027 33.549-33.555 33.549S.445 52.531.445 33.994C.445 15.469 15.472.445 34 .445s33.567 15.024 33.567 33.549z" fill="#f6e71d"/><g fill="#0c0c0c"><path d="M34 68C15.249 68 0 52.742 0 33.994S15.249 0 34 0s34 15.246 34 33.994C68.012 52.742 52.751 68 34 68zM34 .89C15.753.89.89 15.75.89 33.994.89 52.25 15.753 67.098 34 67.098S67.11 52.25 67.11 33.994C67.11 15.75 52.259.89 34 .89zm12.495 18.609H21.302v15.563h25.193V19.499z"/><path d="M46.542 20.295c0 6.956-5.657 12.588-12.637 12.588s-12.637-5.644-12.637-12.588c0-6.956 5.657-12.588 12.637-12.588 6.98-.012 12.637 5.633 12.637 12.588z"/></g><path d="M38.343 19.393c0 3.513-1.991 6.358-4.451 6.358s-4.451-2.846-4.451-6.358 1.991-6.358 4.451-6.358 4.451 2.845 4.451 6.358z" fill="#f6e71d"/><path d="M36.247 22.321c0 1.628-1.054 2.939-2.354 2.939s-2.354-1.311-2.354-2.939 1.054-2.939 2.354-2.939 2.354 1.312 2.354 2.939zm-6.243 12.577c-.258 4.005 1.792 6.909 3.478 7.038 1.757.14 4.38-2.576 4.521-6.897m-16.701-.071c-.223 4.017 1.839 6.897 3.537 7.014 1.757.129 4.368-2.611 4.474-6.932m9.171-.117c-.223 4.017 1.851 6.886 3.537 7.014 1.757.129 4.369-2.611 4.462-6.932M19.639 47.087c.012.34-.035.609-.129.796a1.02 1.02 0 0 1-.375.422 1.4 1.4 0 0 1-.527.176l-.574.059.047 3.209-.035.89-.035.867c0 .422-.094.726-.269.902-.187.176-.469.258-.843.258-.328 0-.562-.105-.714-.316s-.234-.468-.234-.773l.012-1.112.012-.96.012-.96.012-1.101.035-.867-.48-.058c-.176-.035-.34-.094-.504-.164-.152-.082-.281-.187-.386-.316s-.152-.316-.152-.539c0-.07.012-.187.035-.328a1.03 1.03 0 0 1 .199-.433c.105-.141.269-.269.492-.375.211-.105.515-.164.914-.152a7.4 7.4 0 0 0 .539.012l.644-.012.679.012a5.15 5.15 0 0 1 .644.07c.211.047.386.105.55.187s.293.199.386.34v.012c.023.105.047.187.047.258zm3.01-.655a6.96 6.96 0 0 1 .749.059c.305.047.586.117.867.234.269.117.515.269.703.457.199.199.293.445.293.761 0 .328-.07.562-.199.703-.129.129-.304.199-.515.211s-.433-.023-.679-.082l-.703-.176a2.23 2.23 0 0 0-.574-.082c-.164 0-.269.07-.304.199-.07.223-.059.398.035.515.082.117.223.211.398.281s.386.129.633.187a3.27 3.27 0 0 1 .714.258c.234.117.445.269.644.468s.34.468.433.82c.129.515.164.984.07 1.382a2.37 2.37 0 0 1-.457 1.031c-.223.281-.492.504-.808.644s-.633.222-.949.222c-.176 0-.375-.012-.609-.035s-.469-.07-.714-.129a4.71 4.71 0 0 1-.715-.234c-.234-.094-.433-.211-.609-.34a1.22 1.22 0 0 1-.375-.48c-.082-.176-.094-.386-.035-.621.07-.258.152-.445.246-.574.105-.129.211-.199.34-.234a.81.81 0 0 1 .41 0l.468.129.492.152c.164.059.328.082.504.082.07 0 .152-.012.223-.047s.141-.07.187-.129.082-.117.082-.199a.47.47 0 0 0-.082-.258c-.047-.059-.164-.117-.351-.164l-.668-.223a5.72 5.72 0 0 1-.773-.363 2.07 2.07 0 0 1-.656-.621c-.176-.258-.281-.586-.328-.984-.047-.386.035-.878.223-1.452.105-.351.269-.621.492-.796a2.2 2.2 0 0 1 .691-.398 2.59 2.59 0 0 1 .691-.141c.223-.035.386-.035.515-.035zm6.863 7.846c-.117.117-.269.199-.468.258a1.48 1.48 0 0 1-.597.047c-.199-.023-.375-.082-.539-.187s-.269-.246-.316-.422a6 6 0 0 1-.141-.902l-.047-.89-.012-.878-.023-.878-.515-.726c-.199-.246-.375-.503-.539-.773-.164-.258-.316-.527-.433-.808-.117-.269-.176-.55-.176-.82-.047-.281 0-.504.117-.667a.79.79 0 0 1 .445-.316 1.09 1.09 0 0 1 .55-.035c.187.035.34.094.445.199a2.63 2.63 0 0 1 .41.386l.293.386.258.41c.082.141.187.293.305.457l.187-.422.176-.34c.058-.105.14-.222.223-.34s.187-.246.316-.386c.129-.187.293-.316.504-.363a1.02 1.02 0 0 1 .621.023c.199.07.375.187.504.351a.78.78 0 0 1 .164.632c-.012.223-.082.48-.211.773a7.4 7.4 0 0 1-.422.878c-.152.293-.316.562-.48.82l-.41.621.012 1.066.047 1.101a6.88 6.88 0 0 1-.035.995c-.023.316-.094.562-.211.749zm2.483.105c-.094-.047-.164-.246-.223-.574s-.094-.738-.117-1.23l-.035-1.569.012-1.593.035-1.335.035-.761a1.17 1.17 0 0 1 .152-.539c.082-.129.199-.234.316-.293a1.2 1.2 0 0 1 .398-.117l.386-.023c.281 0 .468.07.586.211s.199.316.234.539.047.48.047.761a6.56 6.56 0 0 0 .023.831 4.64 4.64 0 0 0 .41-.632l.457-.761a3.59 3.59 0 0 1 .527-.632.93.93 0 0 1 .632-.269.81.81 0 0 1 .305.07c.105.047.211.117.305.199a1.76 1.76 0 0 1 .246.269.66.66 0 0 1 .117.305 2.37 2.37 0 0 1-.176.972 7.27 7.27 0 0 1-.492.937l-.562.796-.398.55.433.609.515.773a6.25 6.25 0 0 1 .433.831c.129.281.199.55.211.785a.67.67 0 0 1-.105.422 1.16 1.16 0 0 1-.293.34c-.117.094-.234.176-.363.222a.83.83 0 0 1-.34.082.89.89 0 0 1-.621-.234c-.164-.152-.305-.34-.433-.562a6.54 6.54 0 0 1-.351-.703 3.72 3.72 0 0 0-.398-.667l-.023.176c0 .012.012.07.023.176.023.422-.023.773-.129 1.042-.117.269-.269.457-.457.586s-.41.187-.644.187c-.234.012-.457-.059-.679-.176zm9.733-.715c0 .293-.094.503-.293.644s-.433.222-.703.269c-.281.047-.562.059-.855.047l-.738-.023c-.328 0-.609-.023-.843-.082s-.422-.152-.562-.293a1.22 1.22 0 0 1-.316-.55 3.02 3.02 0 0 1-.105-.867l-.023-2.119-.023-2.108-.012-.726c-.012-.269.012-.527.059-.761s.152-.433.304-.597.398-.246.715-.246c.738 0 1.101.363 1.101 1.077l-.012 1.112-.023 1.031-.023 1.042-.012 1.112a3.15 3.15 0 0 0 .023.363c.012.105.047.176.082.246a.51.51 0 0 0 .199.141c.082.035.199.047.34.047l.281-.012c.059 0 .117-.012.164-.012s.105-.012.176-.012h.293c.152 0 .269.035.375.105s.176.176.234.304a2.22 2.22 0 0 1 .129.422c.059.129.07.281.07.445zm4.427.551c-.691.269-1.277.363-1.769.305-.492-.07-.89-.234-1.218-.515a2.62 2.62 0 0 1-.726-1.077 5.31 5.31 0 0 1-.316-1.37 8.46 8.46 0 0 1-.023-1.44l.187-1.546v-.012-.012l.152-.48c.059-.164.117-.316.211-.468.082-.152.187-.293.305-.422a1.97 1.97 0 0 1 .445-.351 3.08 3.08 0 0 1 1.089-.375 2.83 2.83 0 0 1 1.171.059 2.97 2.97 0 0 1 .691.41 2.98 2.98 0 0 1 .574.632v.012a5.47 5.47 0 0 1 .398 1.077 7.41 7.41 0 0 1 .222 1.288c.035.445.047.902.012 1.358-.023.457-.094.878-.211 1.265a3.77 3.77 0 0 1-.457 1.03 1.9 1.9 0 0 1-.738.632zm-.937-2.108a2.03 2.03 0 0 0 .117-.48l.094-.726c.023-.258.023-.527.023-.808a3.58 3.58 0 0 0-.082-.749c-.047-.223-.129-.41-.223-.539-.105-.141-.234-.199-.398-.187s-.281.105-.386.269c-.094.164-.164.363-.223.597a3.59 3.59 0 0 0-.082.714c-.012.246 0 .457.012.621l.07.656a1.89 1.89 0 0 0 .187.679c.14.164.281.234.433.234.164.012.316-.082.457-.281zm3.9 2.354a.71.71 0 0 1-.41-.129c-.117-.082-.211-.199-.293-.328s-.152-.269-.187-.422a1.86 1.86 0 0 1-.094-.41l-.059-3.794-.012-1.241c-.012-.363.023-.679.105-.96.082-.269.223-.48.433-.644s.539-.258.984-.293l.515-.023h.457a2.95 2.95 0 0 1 .457.047l.527.082c.246.047.48.152.691.293a2.14 2.14 0 0 1 .539.539 2.46 2.46 0 0 1 .351.726 2.98 2.98 0 0 1 .129.867c0 .949-.269 1.639-.796 2.084-.527.433-1.265.644-2.19.621l-.012 1.452c0 .187-.012.363-.047.515a2.59 2.59 0 0 1-.176.504v.012c-.105.141-.234.258-.398.351a.97.97 0 0 1-.515.152zm1.171-4.883c.34 0 .586-.082.726-.246s.211-.34.187-.527c-.012-.187-.105-.363-.269-.515s-.387-.211-.656-.187v1.475h.012z" fill="#0c0c0c"/></svg>