<svg xmlns="http://www.w3.org/2000/svg" width="201" height="56" fill="none"><path d="M55.643 27.995c0 15.256-12.375 27.629-27.633 27.629S.367 43.261.367 27.995C.367 12.739 12.741.366 28 .366s27.643 12.373 27.643 27.629z" fill="#f6e71d"/><g fill="#0c0c0c"><path d="M28 56C12.558 56 0 43.435 0 27.995S12.558 0 28 0s28 12.556 28 27.995C56.01 43.435 43.442 56 28 56zM28 .733C12.973.733.733 12.971.733 27.995.733 43.029 12.973 55.258 28 55.258S55.267 43.03 55.267 27.996C55.267 12.971 43.037.733 28 .733zm10.29 15.325H17.543v12.816H38.29V16.058z"/><path d="M38.328 16.714c0 5.728-4.659 10.367-10.407 10.367s-10.407-4.648-10.407-10.367c0-5.728 4.659-10.367 10.407-10.367 5.749-.01 10.407 4.639 10.407 10.367z"/></g><path d="M31.577 15.971c0 2.893-1.64 5.236-3.665 5.236s-3.665-2.343-3.665-5.236 1.64-5.236 3.665-5.236 3.665 2.343 3.665 5.236z" fill="#f6e71d"/><path d="M29.85 18.382c0 1.341-.868 2.421-1.939 2.421s-1.939-1.08-1.939-2.421.868-2.42 1.939-2.42 1.939 1.08 1.939 2.42zm-5.141 10.357c-.212 3.298 1.476 5.69 2.865 5.796 1.447.116 3.607-2.122 3.723-5.68m-13.754-.058c-.183 3.308 1.514 5.68 2.913 5.777 1.447.106 3.598-2.151 3.685-5.709m7.551-.097c-.183 3.308 1.524 5.67 2.913 5.777 1.447.106 3.598-2.151 3.675-5.709m-22.107 9.942c.01.28-.029.501-.106.656a.84.84 0 0 1-.309.347c-.135.077-.28.125-.434.145l-.473.048.039 2.642-.029.733-.029.714c0 .347-.077.598-.222.743-.154.145-.386.212-.694.212-.27 0-.463-.087-.588-.26a1.06 1.06 0 0 1-.193-.637l.01-.916.01-.791.01-.791.01-.907.029-.714-.395-.048c-.145-.029-.28-.077-.415-.135a1.05 1.05 0 0 1-.318-.26c-.087-.106-.125-.26-.125-.444a1.84 1.84 0 0 1 .029-.27c.019-.116.077-.241.164-.357s.222-.222.405-.309c.174-.087.424-.135.752-.125a6.02 6.02 0 0 0 .444.01l.531-.01.559.01a4.27 4.27 0 0 1 .531.058c.174.039.318.087.453.154a.81.81 0 0 1 .318.28v.01c.019.087.039.154.039.212zm2.479-.54c.164 0 .366.019.617.048.251.038.482.096.714.193a1.88 1.88 0 0 1 .579.376c.164.164.241.367.241.627 0 .27-.058.463-.164.579a.63.63 0 0 1-.424.174c-.174.01-.357-.019-.559-.067l-.579-.145a1.85 1.85 0 0 0-.473-.068c-.135 0-.222.058-.251.164-.058.183-.048.328.029.424.067.096.183.173.328.231s.318.106.521.154.396.116.588.212.367.222.531.386.28.386.357.675c.106.424.135.81.058 1.138a1.97 1.97 0 0 1-.376.849 1.75 1.75 0 0 1-.666.53c-.261.115-.521.183-.781.183-.145 0-.309-.01-.502-.029a4.46 4.46 0 0 1-.588-.106c-.203-.048-.405-.116-.588-.193a2.26 2.26 0 0 1-.502-.28c-.145-.116-.241-.241-.309-.395-.067-.145-.077-.318-.029-.511.058-.212.125-.367.203-.473a.53.53 0 0 1 .28-.193c.106-.029.212-.029.338 0l.386.106.405.125c.135.048.27.068.415.068a.43.43 0 0 0 .183-.038c.058-.028.116-.058.154-.106s.068-.096.068-.164a.39.39 0 0 0-.068-.212c-.039-.048-.135-.096-.289-.135l-.55-.183c-.212-.077-.424-.183-.637-.299-.212-.125-.395-.299-.54-.511s-.232-.482-.27-.81c-.038-.318.029-.723.183-1.196.087-.289.222-.511.405-.656a1.81 1.81 0 0 1 .569-.328 2.13 2.13 0 0 1 .569-.116c.183-.029.318-.029.424-.029zm5.652 6.461a.88.88 0 0 1-.386.212 1.22 1.22 0 0 1-.492.039c-.164-.019-.309-.068-.444-.154a.58.58 0 0 1-.261-.347c-.058-.251-.096-.492-.116-.742l-.039-.733-.01-.723-.019-.723-.424-.598c-.164-.203-.309-.415-.444-.637a4.48 4.48 0 0 1-.357-.665 1.7 1.7 0 0 1-.145-.675c-.039-.231 0-.415.096-.55s.222-.222.367-.26a.9.9 0 0 1 .453-.029c.154.029.28.077.367.164a2.17 2.17 0 0 1 .338.318l.241.318.212.337a4.72 4.72 0 0 0 .251.376l.154-.347.145-.28c.048-.087.116-.183.183-.28a3.18 3.18 0 0 1 .26-.318.68.68 0 0 1 .415-.299.84.84 0 0 1 .511.019.9.9 0 0 1 .415.289c.116.145.164.309.135.521-.01.183-.068.395-.174.636a6.16 6.16 0 0 1-.347.723 8.76 8.76 0 0 1-.395.675l-.338.511.01.878.039.907a5.68 5.68 0 0 1-.029.82c-.019.26-.077.463-.174.617zm2.045.087c-.077-.039-.135-.203-.183-.473a8.4 8.4 0 0 1-.097-1.013l-.029-1.292.01-1.312.029-1.099.029-.627a.98.98 0 0 1 .125-.444c.067-.106.164-.193.26-.241.106-.048.212-.087.328-.096l.318-.019c.231 0 .386.058.482.174a.89.89 0 0 1 .193.444c.029.183.039.395.039.627-.01.232 0 .453.019.685.106-.135.222-.309.338-.521l.376-.627a2.97 2.97 0 0 1 .434-.521c.154-.145.337-.222.521-.222.077 0 .154.019.251.058a1.02 1.02 0 0 1 .251.164c.077.067.145.145.203.222a.54.54 0 0 1 .096.251 1.95 1.95 0 0 1-.145.8 5.88 5.88 0 0 1-.405.771l-.463.656-.328.453.357.502.424.636a5.13 5.13 0 0 1 .357.685 1.8 1.8 0 0 1 .174.646.55.55 0 0 1-.087.347c-.058.106-.145.203-.241.28a1.07 1.07 0 0 1-.299.183c-.106.048-.203.067-.28.067a.73.73 0 0 1-.511-.193 1.96 1.96 0 0 1-.357-.463 5.39 5.39 0 0 1-.289-.579 3.07 3.07 0 0 0-.328-.55l-.019.145c0 .01.01.058.019.145.019.347-.019.637-.106.858a1.08 1.08 0 0 1-.376.482c-.154.106-.338.154-.53.154-.193.01-.376-.048-.559-.145zm8.015-.588c0 .241-.077.415-.241.53s-.357.183-.579.222c-.231.038-.463.048-.704.038l-.608-.019c-.27 0-.502-.019-.694-.068s-.347-.125-.463-.241a1.01 1.01 0 0 1-.261-.453 2.48 2.48 0 0 1-.087-.714l-.019-1.745-.019-1.736-.01-.598a2.63 2.63 0 0 1 .048-.627 1 1 0 0 1 .251-.492c.125-.135.328-.202.588-.202.608 0 .907.299.907.887l-.01.916-.019.849-.019.858-.01.916c0 .116.01.212.019.299s.039.145.068.203a.42.42 0 0 0 .164.116.75.75 0 0 0 .28.038l.231-.01c.048 0 .096-.01.135-.01s.087-.01.145-.01h.241a.53.53 0 0 1 .309.087c.087.058.145.145.193.251s.077.222.106.347c.048.106.058.232.058.367zm3.646.453c-.569.222-1.051.299-1.456.251-.405-.058-.733-.193-1.003-.424a2.16 2.16 0 0 1-.598-.887c-.135-.357-.222-.733-.26-1.128s-.048-.791-.019-1.186l.154-1.273v-.01-.01l.125-.395a1.93 1.93 0 0 1 .174-.386 1.77 1.77 0 0 1 .251-.347c.097-.106.222-.203.367-.289a2.54 2.54 0 0 1 .897-.309 2.33 2.33 0 0 1 .965.048 2.46 2.46 0 0 1 .569.337c.174.145.338.318.473.521v.01c.125.251.241.55.328.887a6.08 6.08 0 0 1 .183 1.061c.029.367.039.743.01 1.119a4.32 4.32 0 0 1-.174 1.042c-.087.318-.222.608-.376.849a1.57 1.57 0 0 1-.608.521zm-.772-1.736c.039-.087.068-.212.096-.395l.077-.598c.019-.212.019-.434.019-.665s-.029-.434-.068-.617-.106-.337-.183-.444a.35.35 0 0 0-.328-.154c-.135.01-.231.087-.318.222a1.94 1.94 0 0 0-.183.492 2.97 2.97 0 0 0-.068.588 4.2 4.2 0 0 0 .01.511l.058.54c.019.203.067.386.154.559.116.135.231.193.357.193.135.01.26-.068.376-.231zm3.212 1.938a.59.59 0 0 1-.338-.106c-.097-.067-.174-.164-.241-.27a1.14 1.14 0 0 1-.154-.347c-.039-.116-.068-.231-.077-.338l-.048-3.124-.01-1.022c-.01-.299.019-.559.087-.791.068-.222.183-.395.357-.53s.444-.212.81-.241l.424-.019h.376c.125 0 .251.019.376.039l.434.067c.203.039.395.125.569.241a1.76 1.76 0 0 1 .444.444c.125.174.222.376.289.598s.106.463.106.714c0 .781-.222 1.35-.656 1.717-.434.357-1.042.53-1.804.511l-.01 1.196c0 .154-.01.299-.039.424a2.13 2.13 0 0 1-.145.415v.01a1.06 1.06 0 0 1-.328.289c-.145.087-.28.125-.424.125zm.965-4.021c.28 0 .482-.067.598-.203s.174-.28.154-.434c-.01-.154-.087-.299-.222-.424s-.318-.173-.54-.154v1.215h.01zm47.552-23.919c.039 1.124-.117 2.016-.429 2.637s-.742 1.086-1.249 1.396c-.546.31-1.132.504-1.757.582l-1.913.194.156 10.624-.117 2.947-.117 2.869c0 1.396-.312 2.404-.898 2.986-.625.582-1.561.853-2.811.853-1.093 0-1.874-.349-2.381-1.047s-.781-1.551-.781-2.559l.039-3.684.039-3.18.039-3.179.039-3.645.117-2.869-1.6-.194c-.586-.116-1.132-.31-1.679-.543-.508-.271-.937-.62-1.288-1.047s-.507-1.047-.507-1.784c0-.233.039-.62.117-1.086s.312-.969.664-1.435.898-.892 1.639-1.241c.703-.349 1.718-.543 3.045-.504.508.039 1.132.039 1.796.039l2.147-.039 2.264.039a17.31 17.31 0 0 1 2.147.233c.703.155 1.288.349 1.835.62a3.3 3.3 0 0 1 1.288 1.125v.039c.078.349.156.62.156.853zm10.032-2.171c.664 0 1.484.078 2.499.194 1.014.155 1.951.388 2.888.776.898.388 1.718.892 2.342 1.512.664.659.976 1.473.976 2.52 0 1.086-.234 1.861-.663 2.326-.43.427-1.015.659-1.718.698s-1.444-.078-2.264-.271l-2.342-.582c-.742-.194-1.366-.271-1.913-.271s-.898.233-1.015.659c-.234.737-.195 1.318.117 1.706.273.388.742.698 1.327.931s1.288.427 2.107.62a10.94 10.94 0 0 1 2.382.853c.78.388 1.483.892 2.147 1.551s1.132 1.551 1.444 2.714c.429 1.706.546 3.257.234 4.575-.273 1.357-.781 2.482-1.522 3.412s-1.64 1.667-2.694 2.133-2.108.737-3.162.737a20.84 20.84 0 0 1-2.029-.116c-.78-.077-1.562-.233-2.381-.427s-1.639-.465-2.381-.776a9.17 9.17 0 0 1-2.03-1.124c-.586-.465-.976-.969-1.249-1.59-.273-.582-.312-1.279-.117-2.055.234-.853.507-1.473.82-1.9.351-.426.703-.659 1.132-.775s.859-.116 1.366 0l1.562.426 1.639.504c.546.194 1.093.271 1.678.271a1.71 1.71 0 0 0 .742-.155c.235-.116.468-.233.625-.427s.273-.388.273-.659-.078-.543-.273-.853c-.156-.194-.546-.388-1.171-.543L96.15 30.6c-.859-.31-1.718-.737-2.576-1.202a6.88 6.88 0 0 1-2.186-2.055c-.586-.853-.937-1.939-1.093-3.257-.156-1.28.117-2.908.742-4.808.351-1.163.898-2.055 1.639-2.637.742-.62 1.522-1.047 2.303-1.318.82-.271 1.561-.427 2.303-.465.742-.116 1.288-.116 1.718-.116zm22.875 25.979c-.39.388-.898.659-1.561.853a4.95 4.95 0 0 1-1.991.155c-.664-.078-1.249-.271-1.796-.62s-.898-.814-1.054-1.396a19.78 19.78 0 0 1-.468-2.986l-.156-2.947-.039-2.908-.078-2.908-1.718-2.404c-.664-.814-1.249-1.667-1.796-2.559-.546-.853-1.054-1.745-1.444-2.675-.39-.892-.585-1.822-.585-2.714-.157-.931 0-1.667.39-2.21s.898-.892 1.483-1.047a3.67 3.67 0 0 1 1.835-.116c.624.116 1.132.31 1.483.659.547.426 1.015.853 1.367 1.28l.975 1.279.859 1.357c.273.465.625.969 1.015 1.512l.625-1.396.585-1.124c.195-.349.469-.737.742-1.125s.625-.814 1.054-1.279c.429-.62.976-1.047 1.678-1.202a3.42 3.42 0 0 1 2.069.078c.664.233 1.249.62 1.679 1.163.468.582.663 1.241.546 2.094-.039.737-.273 1.59-.702 2.559-.391.969-.859 1.939-1.406 2.908a35.77 35.77 0 0 1-1.6 2.714l-1.366 2.055.039 3.529.156 3.645a22.67 22.67 0 0 1-.117 3.296c-.078 1.047-.312 1.861-.703 2.482zm8.276.348c-.313-.155-.547-.814-.742-1.9s-.312-2.443-.39-4.071l-.117-5.196.039-5.273.117-4.42.117-2.52c.039-.737.234-1.318.507-1.784a2.78 2.78 0 0 1 1.054-.969c.43-.194.859-.349 1.328-.388l1.288-.078c.937 0 1.561.233 1.952.698s.663 1.047.78 1.784.156 1.59.156 2.52a21.64 21.64 0 0 0 .078 2.753c.43-.543.898-1.241 1.367-2.094l1.522-2.52c.547-.814 1.132-1.512 1.757-2.094s1.366-.892 2.108-.892c.312 0 .624.078 1.015.233.351.155.702.388 1.014.659a5.81 5.81 0 0 1 .82.892c.234.349.352.659.391 1.008.039 1.086-.157 2.133-.586 3.218-.468 1.086-1.015 2.094-1.639 3.102l-1.874 2.637-1.327 1.822 1.444 2.016 1.718 2.559c.546.892 1.053 1.822 1.444 2.753.429.931.663 1.822.702 2.598a2.2 2.2 0 0 1-.351 1.396 3.82 3.82 0 0 1-.976 1.124c-.391.31-.78.582-1.21.737-.429.194-.82.271-1.132.271-.82 0-1.522-.271-2.069-.776s-1.015-1.124-1.444-1.861-.82-1.512-1.171-2.327c-.391-.814-.82-1.551-1.327-2.21l-.078.582c0 .039.039.233.078.582.078 1.396-.078 2.559-.43 3.451-.39.892-.898 1.512-1.522 1.939s-1.366.62-2.147.62c-.781.039-1.523-.194-2.264-.582zm32.439-2.365c0 .969-.313 1.667-.976 2.133s-1.445.737-2.342.892c-.937.155-1.874.194-2.85.155l-2.459-.078c-1.093 0-2.03-.078-2.811-.271s-1.405-.504-1.874-.969-.858-1.086-1.054-1.822c-.234-.776-.351-1.706-.351-2.869l-.078-7.018-.078-6.979-.039-2.404a10.5 10.5 0 0 1 .195-2.52 4.01 4.01 0 0 1 1.015-1.977c.508-.543 1.327-.814 2.381-.814 2.459 0 3.67 1.202 3.67 3.567l-.039 3.683-.078 3.412-.079 3.451-.039 3.684a10.37 10.37 0 0 0 .078 1.202c.04.349.157.582.274.814.156.194.39.349.663.465s.664.155 1.132.155l.937-.039c.195 0 .391-.039.547-.039s.351-.039.585-.039h.976c.508 0 .898.116 1.249.349s.586.582.781 1.008.312.892.429 1.396c.196.427.235.931.235 1.473zm14.755 1.823c-2.303.892-4.255 1.202-5.894 1.008-1.64-.233-2.967-.776-4.06-1.706a8.67 8.67 0 0 1-2.42-3.567 17.46 17.46 0 0 1-1.054-4.537c-.156-1.59-.195-3.179-.078-4.769l.624-5.118v-.039-.039l.508-1.59c.195-.543.39-1.047.703-1.551.273-.504.624-.969 1.014-1.396s.898-.814 1.484-1.163a10.32 10.32 0 0 1 3.63-1.241c1.288-.194 2.616-.155 3.904.194a9.99 9.99 0 0 1 2.303 1.357 9.92 9.92 0 0 1 1.913 2.094v.039a18.02 18.02 0 0 1 1.327 3.567c.351 1.357.624 2.753.742 4.265.117 1.473.156 2.986.039 4.498-.079 1.512-.313 2.908-.703 4.188a12.44 12.44 0 0 1-1.522 3.412c-.664.931-1.484 1.629-2.46 2.094zm-3.123-6.979c.157-.349.274-.853.391-1.59l.312-2.404c.078-.853.078-1.745.078-2.675s-.117-1.745-.273-2.482-.43-1.357-.742-1.784c-.351-.465-.781-.659-1.327-.62s-.937.349-1.288.892c-.313.543-.547 1.202-.742 1.977-.156.776-.273 1.551-.273 2.365a16.79 16.79 0 0 0 .039 2.055l.234 2.171c.078.814.273 1.551.625 2.249.468.543.937.776 1.444.776.546.039 1.054-.272 1.522-.931zm12.999 7.793a2.38 2.38 0 0 1-1.366-.426c-.39-.271-.703-.659-.976-1.086s-.507-.892-.624-1.396c-.157-.465-.274-.931-.313-1.357l-.195-12.563-.039-4.11c-.039-1.202.078-2.249.351-3.18.274-.892.742-1.59 1.445-2.132s1.795-.853 3.279-.969l1.717-.078h1.523c.507 0 1.015.078 1.522.155l1.757.271c.819.155 1.6.504 2.303.969s1.288 1.086 1.795 1.784.898 1.512 1.172 2.404a9.82 9.82 0 0 1 .429 2.869c0 3.141-.898 5.428-2.655 6.902-1.756 1.435-4.215 2.133-7.299 2.055l-.039 4.808c0 .62-.039 1.202-.156 1.706s-.313 1.086-.586 1.667v.039a4.28 4.28 0 0 1-1.327 1.163c-.586.349-1.132.504-1.718.504zm3.904-16.169c1.132 0 1.952-.271 2.42-.814s.703-1.124.625-1.745c-.039-.62-.352-1.202-.898-1.706s-1.288-.698-2.186-.62v4.886h.039z" fill="#0c0c0c"/></svg>