<svg width="240" height="50" viewBox="0 0 144 30" fill="none" xmlns="http://www.w3.org/2000/svg">
<path d="M5.97774 13.7925L2.43359 17.6474L11.9059 27.2181L21.448 17.6852L17.257 13.7925C17.257 13.7925 16.438 16.7326 11.9059 16.7326C7.3739 16.7326 5.97774 13.7925 5.97774 13.7925Z" fill="#00ACB0"/>
<path d="M18.3634 12.1519C18.0286 13.292 17.4077 14.3276 16.5598 15.1601L19.0799 17.7558L11.9017 25.1373L4.72441 17.7558L7.24454 15.1601C6.39636 14.3276 5.7752 13.2921 5.44012 12.1519L0 17.7558L11.9059 30.0003L23.8127 17.7558L18.3634 12.1519Z" fill="#46004D"/>
<path d="M18.6724 14.5903H5.13086V15.9512H18.6724V14.5903Z" fill="#2F0033"/>
<path d="M5.44707 12.1519C5.78215 13.2921 6.4033 14.3276 7.25149 15.1601L5.34795 17.1174C4.5238 16.2984 3.85821 15.334 3.38477 14.273L5.44707 12.1519Z" fill="#2F0033"/>
<path d="M20.1153 13.9546C19.6772 15.0404 19.0409 16.0351 18.2387 16.888L16.5586 15.1601C17.4063 14.3274 18.0271 13.2919 18.3622 12.1519L20.1153 13.9546Z" fill="#2F0033"/>
<path d="M9.96424 19.6616H6.45117V23.7442H9.96424V19.6616Z" fill="#46004D"/>
<path d="M17.3627 19.6616H13.8496V23.7442H17.3627V19.6616Z" fill="#46004D"/>
<path d="M12.6766 17.2772C7.43135 17.7577 3.0564 13.2584 3.52011 7.86865C3.87881 3.73396 7.11634 0.40402 11.1368 0.0352404C16.3812 -0.445265 20.757 4.05485 20.2933 9.44878C19.9346 13.5793 16.697 16.9084 12.6766 17.2772Z" fill="#46004D"/>
<path d="M12.0459 14.1777C14.8684 14.0708 17.0673 11.631 16.9573 8.72831C16.8473 5.82565 14.4701 3.55927 11.6476 3.66622C8.82516 3.77316 6.62627 6.21294 6.73626 9.11561C6.84625 12.0183 9.22346 14.2847 12.0459 14.1777Z" fill="#2F0033"/>
<path d="M12.1089 13.8677C14.9096 13.7615 17.0915 11.3405 16.9823 8.46006C16.8732 5.57964 14.5143 3.33063 11.7136 3.43675C8.91298 3.54288 6.73106 5.96394 6.8402 8.84436C6.94934 11.7248 9.30822 13.9738 12.1089 13.8677Z" fill="#00ACB0"/>
<path d="M102.489 12.2652C100.913 10.7291 98.9555 9.96085 96.6167 9.96045C94.2779 9.96004 92.3184 10.7283 90.7381 12.2652C89.1562 13.8016 88.3652 15.7099 88.3652 17.9898C88.3652 20.2698 89.1562 22.178 90.7381 23.7145C92.32 25.251 94.2795 26.0192 96.6167 26.0192C98.9539 26.0192 100.911 25.251 102.489 23.7145C104.064 22.1784 104.851 20.2702 104.852 17.9898C104.852 15.7095 104.064 13.8012 102.489 12.2652ZM99.626 21.021C98.8338 21.8278 97.8307 22.2312 96.6167 22.2312C95.4132 22.2312 94.4103 21.8256 93.608 21.0143C92.8057 20.2031 92.4044 19.1951 92.404 17.9904C92.404 16.787 92.8053 15.779 93.608 14.9666C94.4107 14.1541 95.4136 13.7485 96.6167 13.7497C97.8303 13.7497 98.8334 14.1533 99.626 14.9605C100.419 15.7677 100.815 16.7781 100.815 17.9917C100.815 19.2041 100.419 20.2138 99.626 21.021Z" fill="#46004D"/>
<path d="M45.5932 8.33665V4.31982L28 7.42219V11.439L34.5972 10.2757V11.2547V25.65H38.7369V11.0733L36.9913 9.85345L45.5932 8.33665Z" fill="#46004D"/>
<path d="M53.3359 19.0024C53.3359 19.9807 53.04 20.7636 52.4482 21.3509C51.8564 21.9382 51.0709 22.2315 50.0918 22.2307C49.1134 22.2307 48.3281 21.937 47.7359 21.3497C47.1437 20.7624 46.8478 19.9795 46.8482 19.0012V11.0752L42.9434 11.7658V19.5475C42.9434 21.5054 43.5942 23.0738 44.8958 24.2525C46.1974 25.4312 47.9294 26.0208 50.0918 26.0212C52.2448 26.0212 53.9745 25.4292 55.281 24.2452C56.5875 23.0612 57.2408 21.4953 57.2408 19.5475V11.0752L53.3359 11.7658V19.0024Z" fill="#46004D"/>
<path d="M121.296 19.0024C121.296 19.9807 121 20.7636 120.409 21.3509C119.817 21.9382 119.031 22.2315 118.052 22.2307C117.074 22.2307 116.289 21.937 115.697 21.3497C115.105 20.7624 114.809 19.9795 114.809 19.0012V11.0752L110.904 11.7658V19.5475C110.904 21.5054 111.555 23.0738 112.856 24.2525C114.157 25.4312 115.889 26.0208 118.052 26.0212C120.205 26.0212 121.935 25.4292 123.241 24.2452C124.548 23.0612 125.201 21.4953 125.201 19.5475V11.0752L121.296 11.7658V19.0024Z" fill="#46004D"/>
<path d="M59.9531 15.0659V25.6525H63.8574V16.5042L62.099 15.2789L68.6962 14.115V10.3281L63.0987 11.3156C62.2172 11.4712 61.4187 11.9325 60.8434 12.6183C60.2681 13.3042 59.9529 14.1708 59.9531 15.0659Z" fill="#46004D"/>
<path d="M83.2548 11.0091C82.1146 10.3094 80.8451 9.95953 79.4461 9.95953C77.418 9.95953 75.755 10.6886 74.457 12.1468V4L70.5527 4.68873V25.6514H74.457V23.8164C75.7688 25.2839 77.4318 26.0179 79.4461 26.0183C80.8447 26.0183 82.1142 25.6685 83.2548 24.9688C84.3954 24.2691 85.2878 23.3051 85.9319 22.0769C86.5777 20.8491 86.9005 19.4865 86.9005 17.9889C86.9005 16.4914 86.5777 15.1287 85.9319 13.9009C85.2878 12.6731 84.3954 11.7092 83.2548 11.0091ZM81.6839 21.0201C80.886 21.8269 79.8805 22.2302 78.6673 22.2302C77.4638 22.2302 76.4609 21.8246 75.6586 21.0134C74.8563 20.2022 74.455 19.1942 74.4546 17.9895C74.4546 16.7861 74.8559 15.7781 75.6586 14.9657C76.4614 14.1532 77.4642 13.7476 78.6673 13.7488C79.8809 13.7488 80.8864 14.1524 81.6839 14.9596C82.4813 15.7667 82.88 16.7771 82.88 17.9907C82.88 19.2031 82.4813 20.2129 81.6839 21.0201Z" fill="#46004D"/>
<path d="M107.582 21.0981C106.811 21.0981 106.162 21.3575 105.635 21.8763C105.108 22.3951 104.846 23.036 104.85 23.799C104.85 24.5619 105.111 25.2028 105.635 25.7216C106.159 26.2404 106.808 26.4997 107.582 26.4997C108.346 26.4997 108.987 26.2404 109.505 25.7216C110.024 25.2028 110.283 24.5619 110.283 23.799C110.283 23.0352 110.024 22.3943 109.505 21.8763C108.987 21.3584 108.345 21.099 107.582 21.0981Z" fill="#46004D"/>
<path d="M140.819 12.2652C139.243 10.7291 137.286 9.96085 134.947 9.96045C132.608 9.96004 130.648 10.7283 129.068 12.2652C127.486 13.8016 126.695 15.7099 126.695 17.9898C126.695 20.2698 127.414 22.178 128.852 23.7145C130.29 25.251 132.082 26.0192 134.228 26.0192C134.934 26.0192 135.767 25.9736 136.55 25.914L139.251 23.2101V25.6523H143.179V17.9898C143.181 15.7103 142.394 13.802 140.819 12.2652ZM137.959 21.021C137.166 21.8286 136.163 22.2324 134.95 22.2324C133.746 22.2324 132.743 21.8268 131.941 21.0155C131.138 20.2043 130.737 19.1963 130.737 17.9917C130.737 16.7882 131.138 15.7802 131.941 14.9678C132.743 14.1553 133.746 13.7497 134.95 13.7509C136.163 13.7509 137.166 14.1545 137.959 14.9617C138.752 15.7689 139.148 16.7793 139.148 17.9929C139.146 19.2045 138.749 20.2138 137.956 21.021H137.959Z" fill="#46004D"/>
</svg>
